<?xml version="1.0" encoding="UTF-8"?>
<svg version="1.1" viewBox="0 0 1600 1600" width="2000" height="2000" xmlns="http://www.w3.org/2000/svg">
<path transform="translate(718,111)" d="m0 0h23l24 2 30 6 20 7 13 5 14 8 15 10 11 9 3 2h10l10-4 22-6 29-5 14-1h29l18 2 17 3 14 2 12 4 11 3 11 4 11 5 8 3 7 4 5 2 6 4 6 3 10 7 9 6 3 3 4 2 4 4 8 7 15 15v2l4 2 2 6 4 2 3 6 3 4 4 11 2 3 2 9 5 3 7 2 3 7 12 3 8 4 6 8 3 10 3 54 2 35 2 58 3 33 2 14v38l1 10v14l-2 10-7 2h-1l-1 5-1 40 3 3 6 3 2-4 5-3 6-3h8l4 4h7l6-1 1-2 5-7 2-1 2-5 1-5h2l1-13-3-10-3-6 1-8 5-4 6-2v-2h2l1-3h2v-2h2l1-5 6-10 2-5v-9l-2-3-3-12-1-7 5-12 10-2h7l6 3 4 6 3 14 2 2 4 1h19l2-6h1l3 18 4 7 1 6 1 22 4 4 9 7 4 10-1 10-6 7-8 4-1 1-2 33-2 10-3 17-2 12-5 19-6 17-8 19-7 13-9 15-9 11-11 12-7 7-11 9-14 9-16 8-15 6h-2l-1 3-6 3-2 2v25l2 37 2 49 2 36v26l-4 8-6 5-12 3-52 3-82 4-11-1 1 8 4 8v18l-3 9-8 10-7 6-12 5-38 7-31 5-25 4-29 3h-9l-9-2-10-5-8-8-6-11-1-5v-15l3-10 8-11 4-2v-2h-19l-26 2-1 2v17l2 23 2 36 2 60 3 49 3 46 3 41 1 20 1 35v42l-3 12-1 8 3 27 3 34 2 28 2 46v38h-497l1-25 4-42 3-36 6-59 3-31 1-12v-3l-10-1-6-3-1-1 1-21 2-24-3-3-12-6-10-8-12-12-13-15-11-14-8-11-4-6-2-1-16 1h-13l-5-4-8-19-8-21-7-19-13-26-4-16-3-16-9-27-5-17-10-33-2-7v-12l4-8 4-3 9-2 46-5 40-3 15-2h8l5 3h2l1-5v-9l3-8 6-11 8-11 7-12 11-16 10-16 8-12 15-23 10-15 12-19 5-8v-8l-5-6-4-9-4-10-4-8-4-15-5-4-23-10-16-8-15-9-16-12-10-9-14-14-13-18-12-23-12-25-11-26-6-18-7-28-4-24-2-25v-16l3-31 6-25 7-20 8-16 8-14 14-19 12-13 6-7 8-7 5-5h2v-2l14-11 18-13 21-13 25-14 7-6 4-8 4-14 8-27 8-18 8-15 7-10 12-16 9-10 2-3h2l2-4 10-9 14-11 12-9 16-10 20-11 30-12 11-4 13-4 12-4 18-4 13-3 33-5zm-17 250-2 4 1 2-4 1-1 4-4 11-1 3-2 2-1 3-2 3-2 1v2l-5-1v2l-5-1-2 1 1 11 1 7-2 1-2 4-4 4-3-1v-3l-4-1h-2l-2-1v2l-3-1-5 4-4 1v2l-8-2 1 9 3 7 1 9v23l-2 17-5 11-3 8 3 8 3 15v20l-4 24-4 13-5 14-3 6-2 5-5 8-1 3-3 2-1 5-11 1 2 5 3 7-12 21v7l4 10 9 27 9 22 2 2 16 4 5 4 8 5 7 8 3 5 15 4 8 3 9 1 5 4 11 3 5 4 9 3 6 4 8 2 1-2v-19l-3-31-2-14-12-6-4-4-8-7-4-5-2-11 3-6 5-3h7l7 3 6-5 2-5-2-22-2-50-5-63-1-26-3-43-1-25-2-18-2-19-3-42zm-19 33m-7 1m4 0m-9 1 1 2zm2 0m-171 356m747 15m3 1-4 2 2 6 4 1 1-8zm-2 9m4 2m0 8m-1 2v3l-3 1v5l2 1 2 10h2l1-8-1-11z" fill="#FCFCFC"/>
<path transform="translate(718,111)" d="m0 0h23l24 2 30 6 20 7 13 5 14 8 15 10 11 9 3 2h10l10-4 22-6 29-5 14-1h29l18 2 17 3 14 2 12 4 11 3 11 4 11 5 8 3 7 4 5 2 6 4 6 3 10 7 9 6 3 3 4 2 4 4 8 7 15 15v2l4 2 2 6 4 2 3 6 3 4 4 11 2 3 2 9 5 3 7 2 3 7 12 3 8 4 6 8 3 10 3 54 2 35 2 58 3 33 2 14v38l1 10v14l-2 10-7 2h-1l-1 5-1 40 3 3 6 3 2-4 5-3 6-3h8l4 4h7l6-1 1-2 5-7 2-1 2-5 1-5h2l1-13-3-10-3-6 1-8 5-4 6-2v-2h2l1-3h2v-2h2l1-5 6-10 2-5v-9l-2-3-3-12-1-7 5-12 10-2h7l6 3 4 6 3 14 2 2 4 1h19l2-6h1l3 18 4 7 1 6 1 22 4 4 9 7 4 10-1 10-6 7-8 4-1 1-2 33-2 10-3 17-2 12-5 19-6 17-8 19-7 13-9 15-9 11-11 12-7 7-11 9-14 9-16 8-15 6h-2l-1 3-6 3-5 4h-2l-1 5-4 6-6 7-6 2v2h-10l-10-6-3-3-5-3-3-4-5-3-4-6v-2h-2l-2-5v-3l-21 1-37 1-11 1-57 2-32 2-24 1-2 1-52 3-54 2-5 1-36 1-16 2-33 2h-12l-3-1-7-8-10-9-4-2-1-31-2-15-2-37-2-33-2-52-3-38-3-57-2-46-2-34-4-72v-22l5-8 7-6 9-2 124-7 95-5 15-2 39-1 41-2 32-2 35-2h30l8 5 4 5 3 9 3 58 4 68 1 33 1 3 3 52 3 94 1 2 1 28 1 2 1 17 1 38 1 5 1 16v25l3 1v-3l5-5 8-5 3-1h12l-1-14v-13l-3-41-1-29-1-20-2-13-10-8-4-6-1-3v-11l3-3h2v-2l7-4-1-23-1-44-4-81-4-69-5-89-3-9-5-6-6-3-9-1-257 14-203 11-11 2-6 4-5 7-1 4v16l2 44 4 64 1 25 2 33 3 55 1 18-2 4-5-60-1-26-3-43-1-25-2-18-2-19-3-42-1-2-1 4-3 1v4h-2l-1 5-3 9v3l-5 4 2 1-4 1-3 3h-3l-5-1-1 5 2 10-3 10-7 4v-2h-2v-3l-3 1h-3l-1-2-6 2-3 3-8 3v-2l-3 1 1 7 3 7 1 9v23l-2 17-5 11-3 8 3 8 3 15v20l-4 24-4 13-5 14-3 6-2 5-5 8-2 4-2 1-2 5-2 1h-9l5 8 1 5-6 9-4 7-4 4v7l5 13 4 13 3 7 2 9 3 5 2 7v8l-11 6-4 5-11 8-16 16-11 14-3 3-3-1-8-10-11-9-12-8v-2l-10-1-9-27-5-9-3-3h-24l-7 5-3 11v14l-3 34-1 5v16l4 8 8 5v3l7-3 5-3 2 1-2 3h-2l-2 5-5 7h-2l-2 6-4 5-6 12-6 9-2-1v-2l-4-2-3-4-4-9-4-10-4-8-4-15-5-4-23-10-16-8-15-9-16-12-10-9-14-14-13-18-12-23-12-25-11-26-6-18-7-28-4-24-2-25v-16l3-31 6-25 7-20 8-16 8-14 14-19 12-13 6-7 8-7 5-5h2v-2l14-11 18-13 21-13 25-14 7-6 4-8 4-14 8-27 8-18 8-15 7-10 12-16 9-10 2-3h2l2-4 10-9 14-11 12-9 16-10 20-11 30-12 11-4 13-4 12-4 18-4 13-3 33-5zm-36 283m-7 1m4 0m-9 1 1 2zm2 0m576 371m3 1-4 2 2 6 4 1 1-8zm-2 9m4 2m0 8m-1 2v3l-3 1v5l2 1 2 10h2l1-8-1-11z" fill="#FBE7BB"/>
<path transform="translate(1142,342)" d="m0 0h30l8 5 4 5 3 9 3 58 4 68 1 33 1 3 3 52 3 94 1 2 1 28 1 2 1 17 1 38 1 5 1 16v25l3 1v-3l5-5 8-5 3-1h10v2l4 1 4 5 3 9-2 12-4 10-3 1-1 5-4 6-6 7-6 2v2h-10l-10-6-3-3-5-3-3-4-5-3-4-6v-2h-2l-2-5v-3l-21 1-37 1-11 1-57 2-32 2-24 1-2 1-52 3-54 2-5 1-36 1-16 2-33 2h-12l-3-1-7-8-10-9-4-2-1-31-2-15-2-37-2-33-2-52-3-38-3-57-2-46-2-34-4-72v-22l5-8 7-6 9-2 124-7 95-5 15-2 39-1 41-2 32-2z" fill="#D45C3A"/>
<path transform="translate(332,1027)" d="m0 0h8l6 4h2l3-3 4 4 4 10 5 6 10 16 9 12 1 3h3l4 6 12 14 6 5 5 5 6 7 6 4 1 3v11l-4 35v8l14 3 27 3 32 1h55l15-2 5-1 16-4 16-7 13-7 11-8 12-11 8-8 11-14 9-12 5-1 12 5 7 3 9 3 13 5 5 3 7 3 17 8 16 8 19 9 24 12-5 9-10 13-11 12-4 5-8 7-7 6h-2l-1 3-22 16-22 13-25 12-29 11-22 6-12 3-21 4-37 4-46-1-30-4-25-5-24-7-29-10h-2l-6 32-5 32-2 25-2 17v15l6 2 26 4 25 4 17 3 10 2 9 3 7 3 24 7 13 5 21 6 5 2 7 2 9 3 18 4 18 5 24 3 21 2h72l30-2 16-3 26-2 1-1 19-2 14-3 13-2h6v-2l17-3 5-2 2-2 2 5 3 27 3 34 2 28 2 46v38h-497l1-25 4-42 3-36 6-59 3-31 1-12v-3l-10-1-6-3-1-1 1-21 2-24-3-3-12-6-10-8-12-12-13-15-11-14-8-11-4-6-2-1-16 1h-13l-5-4-8-19-8-21-7-19-13-26-4-16-3-16-9-27-5-17-10-33-2-7v-12l4-8 4-3 9-2 46-5 40-3z" fill="#E67936"/>
<path transform="translate(332,1027)" d="m0 0h8l6 4h2l3-3 4 4 4 10 5 6 10 16 9 12 1 3h3l4 6 12 14 6 5 5 5 6 7 6 4 1 3v11l-4 35v8l14 3 27 3 32 1h55l15-2 5-1 16-4 16-7 13-7 11-8 12-11 8-8 11-14 9-12 5-1 12 5 7 3 9 3 13 5 5 3 7 3 17 8 16 8 19 9 24 12-5 9-10 13-11 12-4 5-8 7-7 6h-2l-1 3-22 16-22 13-25 12-29 11-22 6-12 3-21 4-37 4-46-1-30-4-25-5-24-7-29-10h-2l-6 32-5 32-2 25-2 17v15l6 2 26 4 25 4 17 3 10 2 1 2-10-1-20-4-34-5h-4l-1 7h-1l-1-8-10-1-6-3-1-1 1-21 2-24-3-3-12-6-10-8-12-12-13-15-11-14-8-11-4-6-2-1-16 1h-13l-5-4-8-19-8-21-7-19-13-26-4-16-3-16-9-27-5-17-10-33-2-7v-12l4-8 4-3 9-2 46-5 40-3z" fill="#FCC38C"/>
<path transform="translate(1142,342)" d="m0 0h30l8 5 4 5 3 9 3 58 4 68v12l-1-2-40 2h-12l1 67-5 7-8 3-34 2h-38l-6-3-5-7-1-8-2-39v-16l-78 4-33 2-3 1-3 6-3 1-7-7-46 2-30 2-78 4-13 1 2 39 4 71v17h-1l-3-38-3-57-2-46-2-34-4-72v-22l5-8 7-6 9-2 124-7 95-5 15-2 39-1 41-2 32-2z" fill="#FEAC6D"/>
<path transform="translate(959,571)" d="m0 0h34l22 4 1 1 25 5 16 5 6 3v2l10 3v2l6 1v2l5 1 7 5 5 3 5 5v2l4 2 10 10 9 14 7 21v20l-4 16-5 10-3 2-1 3h-2l-1 5h-3l-1 4-4 5-5 3-4 4h-2v2h-2v2l-6 3-6 4h-2v2l-9 4-19 9-12 4-27 6-1 1-26 2h-33l-20-2-24-5-8-3-12-4v-2l-11-2-19-10-11-8-8-5-9-11-4-4v-4l-4-2-1-4h-2l-2-6h-2l-3-7-2-11v-21l4-16 3-3 9-17 2-1 3-5 6-6 3-1 3-4h3l1-3 9-5 13-8 14-6 14-5 7-3 12-2h5v-2l19-2 4-1z" fill="#FDFBF9"/>
<path transform="translate(540,393)" d="m0 0h21l17 3 14 4 12 6 12 9 8 9 8 14 5 14 2 13v18l-2 10-4 8-3 8 3 8 3 15v20l-4 24-4 13-5 14-3 6-2 5-5 8-2 4-6 4-1 1-7-1-4-7-3-10-1 1v12l1 5v9l-8 13-4 11-3 3h-4l1-8v-12l-4-7-3-4-1-3v-10l2-9v-13l-4-6-9-9-5-8-24-4-24-3-12-3-12-5-11-8-7-7-8-14v-3l-2 1-6 12-10 14-9 10-10 9-9 6-7 3h-3l3 16v7l-3 7v7l2 10-1 9-5 8-2 17-3 6-4-1-2-8-2-14-7-15v-11l2-5v-7l-5-13v-6l-10-1-6-3-1-7 3-5h2l2-4 5-6 6-14 15-44 4-8 7-13 8-10 12-12 4-3h3v-2l13-8 16-7 17-5 14-3 6-14 8-10 9-8 10-6 10-4z" fill="#4D372F"/>
<path transform="translate(1205,291)" d="m0 0h13l7 5v2h2l4 6 1 5 3 54 2 35 2 58 3 33 2 14v38l1 10v14l-2 10-7 2h-1l-1 5-1 40 3 3 6 3 2-4 5-3 6-3h8l4 4h7l6-1 1-2 5-7 2-1 2-5 1-5h2l1-13-3-10-3-6 1-8 5-4 6-2v-2h2l1-3h2v-2h2l1-5 6-10 2-5v-9l-2-3-3-12-1-7 5-12 10-2h7l6 3 4 6 3 14 2 2 4 1h19l2-6h1l3 18 4 7 1 6 1 22 4 4 9 7 4 10-1 10-6 7-8 4-1 1-2 33-2 10-3 17-2 12-5 19-6 17-8 19-7 13-9 15-9 11-11 12-7 7-11 9-14 9-16 8-15 6h-2l-1 3-6 3-3 2 1-7 2-5 1-9-3-9-4-5-3-1v-2h2l-1-14v-13l-3-41-1-29-1-20-2-13-10-8-4-6-1-3v-11l3-3h2v-2l7-4-1-23-1-44-4-81-4-69-5-89-3-9-5-6-6-3-9-1-257 14-203 11-11 2-6 4-5 7-1 4v16l2 44 4 64 1 25 2 33 3 55 1 18-2 4-5-60-1-26-3-43-1-25-2-18-2-44-2-32v-16l5-9 5-2v-2l9-3 32-2 27-1 28-2 25-1 31-2 37-2 24-1 30-2 27-1 9-1 60-3 23-1 10-1 44-2 14-1 37-2zm43 476m3 1-4 2 2 6 4 1 1-8zm-2 9m4 2m0 8m-1 2v3l-3 1v5l2 1 2 10h2l1-8-1-11z" fill="#FCE7BA"/>
<path transform="translate(965,508)" d="m0 0h15v1l-18 2 11 8 14 10 11 8 14 10 17 12 10 7 3 3 2 6 4 4 17 6 14 10v2l-6-1v-2l-6-1-4-2v-2l-5-1-6-3-15-4-21-4-6-2-17-3h-34l-14 1-11 2h-12v2l-20 4-22 9-10 4-10 6-12 7-1 2-4 2-2 3-5 3-5 5-2 4-2 1-8 16-2 3h-2l-2 11-1 5v21l3 13 1 5h2l2 6h2l3 5 2 1-1 3-10-6-19-14-10-7-18-13-11-8v15l1 17 9 6v2l5 2 22 16 16 11 18 13 15 11 20 14 14 10 17 12 15 11 11 8 10 7 3 2 27 1v1l-18 1-54 2-5 1-36 1-16 2-33 2h-12l-3-1-7-8-10-9-4-2-1-31-2-15-2-37-2-33-2-69-6-105v-5l1-1 51-3 42-2 28-2 46-2 7 7 3-1 3-6 3-1z" fill="#E5724F"/>
<path transform="translate(1184,1069)" d="m0 0 6 3 7 10 8 14 3 5v9l-5 5-9 1h-8l-1 13 10 7 11 9 11 15 6 13 4 11 1 15 18 1 12 3 13 7 7 7 8 11 5 14 1 6v9l-3 14-7 14-12 12-12 6-16 4h-9l-35-5-56-10-25-4-57-10-12-4-10-6-7-6-7-11-4-9-1-5v-22l4-13 6-10 9-9 9-6 12-4 5-1h22l8-15 7-9 6-7 10-7 12-6 15-4 12-2 4-4 2-9-3-2-7-2-5-5v-9l4-5 13-8 9-5 6-3z" fill="#FDF4E0"/>
<path transform="translate(448,531)" d="m0 0h2l7 14 9 10 12 8 16 6 21 3 23 3 10 2 8 11 9 9 2 4v13l-2 9v10l3 6 4 5 1 3v12l-2 8 5-2 4-8 3-8 6-9v-9l-1-5v-12l2-2 3 9 3 6 1 3h7l4-3-1 5-2 1h-9l5 8 1 5-6 9-4 7-4 4v7l5 13 4 13 3 7 2 9 3 5 2 7v8l-11 6-4 5-11 8-16 16-11 14-3 3-3-1-8-10-11-9-12-8v-2l-10-1-9-27-4-13-11-1-18-1-21-6-16-8-10-7-8-7-9-10-6-10-4-6h-1l-1 5h-1v-9l2-8 4-6 1-9-2-10v-7l3-7v-7l-2-8v-8l11-5 13-9 11-11 10-14 7-12z" fill="#FCC28B"/>
<path transform="translate(409,1392)" d="m0 0 19 2 36 6 9 2 10 1 9 4 24 7 13 5 21 6 5 2 7 2 9 3 18 4 18 5 24 3 21 2h72l30-2 16-3 26-2 1-1 19-2 14-3 13-2h6v-2l17-3 5-2 2-2 2 5 3 27 3 34 2 28 2 46v38h-170l-2-1 1-2 7-2-3-46-3-35-3-28v-3h4l2 12 3 28 4 55v14l10-3 5-3 7-3 6-4 3-1-1-28-2-38-1-20v-16l4 1 1 20 4 77 14-11 5-5 6-7 1-2h2l2-5 3-5 1-14-2-33-2-23-1-5-7-2h-19l-23 3-29 2h-26l-21-1-31-4-30-6-23-6-26-9-12-5-15-6-7-3-27-9-14-4-22-5-9-2-10-1-16-4-13-3-2-1v-5z" fill="#DF6D2E"/>
<path transform="translate(959,571)" d="m0 0h34l22 4 1 1 25 5 16 5 6 3v2l10 3v2l6 1v2l5 1 7 5 5 3 5 5v2l4 2 10 10 9 14 7 21v20l-4 16-5 10-3 2-1 3h-2l-1 5h-3l-1 4-4 5-5 3-4 4h-2v2h-2v2l-6 3-6 4h-2v2l-9 4-19 9-12 4-27 6-1 1-26 2h-33l-20-2-24-5-8-3-12-4v-2l-11-2-19-10-11-8-8-5-9-11-4-4v-4l-4-2-1-4h-2l-2-6h-2l-3-7-2-11v-21l4-16 3-3 9-17 2-1 3-5 6-6 3-1 3-4h3l1-3 9-5 13-8 14-6 14-5 7-3 12-2h5v-2l19-2 4-1zm26 8-18 5-15 4-12 2-6 3-17 4-16 4-16 5-25 8-8 4-1 1v12l2 4 8 2 24 4 4 1 12 2 5 1 26 3h-25l-15 3-15 5-15 7-10 6-7 10-2 9v7l3 10 9 17 11 12 10 6 10 3 12 3 15 4 21 4h19l11-2 10-4 8-6 5-4v10l1 3 8 5h11l8-3 14-8 2-2 5-2v-2l5-2 7-4v-2l5-2 16-12 10-8 13-12 3-2v-2l3-1v-2l4-2 3-5 1-5v-7h-2l-2-4-3-3-2-1h-9l4-5 5-4 3-8-1-8-3-5-7-3h-11l-10 3v2l-8 4-3 3v2l-4 2-11 8-5 2v2l-4 1-5 5-14 10-4 3-6 2v2l-4 1-5 6-2 1-3-10-5-8-7-6-3-3-13-8-5-2 21 2 10 2 10 1 22 2h8l4-8v-8l-6-16-2-7h-3l-3-10-4-10-7-14-5-5-7-2z" fill="#FCF9F6"/>
<path transform="translate(973,925)" d="m0 0h9l6 4 5 3 5 6 4 2 4 5v9l-4 4-11 2 1 10 2 4h10l7 2 3 3 6 3 10 9 6 8 5 10 12-1 14 3 5 4 3 1 6 7h3l1 7 4 8v18l-3 9-8 10-7 6-12 5-38 7-31 5-25 4-29 3h-9l-9-2-10-5-8-8-6-11-1-5v-15l3-10 8-11 4-2v-2h-19l-26 2-1 2v17l2 23v18h-1l-3-35-1-17-1-8 1-2 5-2h12l33-1 9-2 2-1 16-1 3-1 1-11 4-11 5-8 7-9 8-6 5-3h2v-17h-12l-5-3-1-2v-7l5-5 2-5 6-7 4-4h2z" fill="#FDF4E1"/>
<path transform="translate(337,1028)" d="m0 0 5 2 6 8 10 24 6 17 13 35-2 4-5 5-4 8-8-1-13-4-19-10-15-6-13-4h-17l-12 4-8 5-7 8-7 12-4 13-1-2h-2l-9-27-5-17-10-33-2-7v-12l4-8 4-3 9-2 46-5 27-2z" fill="#FDB421"/>
<path transform="translate(965,508)" d="m0 0h15v1l-18 2 11 8 14 10 11 8 14 10 17 12 10 7 3 3 2 6 4 4 17 6 14 10v2l-6-1v-2l-6-1-4-2v-2l-5-1-6-3-15-4-21-4-6-2-17-3h-34l-14 1-11 2h-12v2l-20 4-22 9-2-1v-2l-17-12-10-7-18-13-16-12-11-7-12-9-2-1v-2l-5-2-4-2-20 1h-14v-1l51-3 42-2 28-2 46-2 7 7 3-1 3-6 3-1z" fill="#E5724F"/>
<path transform="translate(1325,486)" d="m0 0h7l6 3 4 6 3 14 2 2 4 1h19l2-6h1l3 18 4 7 1 6v10h-1l-1-6-2 5-3 10-3 2-8 2-22 9-5 4h-2l-3 9-3 4-1 3h-2l-2 11-6 13-3 14-1 15v8l3 6v19l-3 7-7 12-6 14-8 7-13 2-6 3h-2v2l-6 3-2 4h-2v7l-6 2-2-27-1-21-1-17 8-3 4-11 2-9 6-9-1-14-3-1-5-5h-11l1-2 3-1h8l4 4h7l6-1 1-2 5-7 2-1 2-5 1-5h2l1-13-3-10-3-6 1-8 5-4 6-2v-2h2l1-3h2v-2h2l1-5 6-10 2-5v-9l-2-3-3-12-1-7 5-12z" fill="#FDF4E2"/>
<path transform="translate(1132,718)" d="m0 0 4 1 2 1v2l5 2 14 10 11 8 26 18v2l5 2 7 5 1-8h1l1 16v25l3 1v-3l5-5 8-5 3-1h10v2l4 1 4 5 3 9-2 12-4 10-3 1-1 5-4 6-6 7-6 2v2h-10l-10-6-3-3-5-3-3-4-5-3-4-6v-2h-2l-2-5v-3l-21 1-37 1-11 1h-26l-5-5-14-10-11-8-16-11-3-2 1-3 16-4 17-6 10-5h5l15 11 18 13 14 10 19 13v2h28l1-12-11-8-20-14-11-8-10-7-11-8-9-7 2-4 13-13 7-10z" fill="#E5734F"/>
<path transform="translate(780,519)" d="m0 0 6 1 6 4v2l5 2 15 11 13 9 19 14 13 9 18 13 5 4-8 5-24 14-1 2-4 2-2 3-5 3-5 5-2 4-2 1-8 16-2 3h-2l-1 6-3 3-16-12-14-10-13-9-10-7-5-3-5-88v-5z" fill="#E5724F"/>
<path transform="translate(1205,291)" d="m0 0h13l7 5v2h2l4 6 1 5 3 54 2 35 2 58 3 33 2 14v38l1 10v14l-2 10-7 2h-1l-1 5-1 40 3 3 6 3 2-4 5-3 5-1h8l5 4 2 3v11l-2 8h-2l-2 5-9 13-8 2-7-2-6-4-11-9-4-6-1-3v-11l3-3h2v-2l7-4-1-23-1-44-4-81-4-69-5-89-3-9-5-6-6-3-9-1-257 14-203 11-11 2-6 4-5 7-1 4v16l2 44 4 64 1 25 2 33 3 55 1 18-2 4-5-60-1-26-3-43-1-25-2-18-2-44-2-32v-16l5-9 5-2v-2l9-3 32-2 27-1 28-2 25-1 31-2 37-2 24-1 30-2 27-1 9-1 60-3 23-1 10-1 44-2 14-1 37-2z" fill="#E5D5B9"/>
<path transform="translate(1078,630)" d="m0 0h11l8 4 3 7-1 8-3 6-7 6-1 2h9l4 2 3 4v2h2v7l-3 9-3 3h-2l-1 3h-2v2l-8 7-11 10-16 12-10 7h-2v2l-10 6h-2l-1 3-5 2-11 7-5 3-7 2h-11l-8-5v-9l2-6 3-3 1-3 5-5 1-2h-10l-7-4-1-3v-7l5-11 16-16 19-14 10-7 2-3h3v-2l6-3 12-9h2v-2l5-4 4-3h2v-2z" fill="#966038"/>
<path transform="translate(1020,1213)" d="m0 0h2l5 10 7 9 9 8 7 3 4 2 21 4 13 2 15 3 10 1 8 2 39 6 31 6 22 3 16 3 10 1 15-3 9-4 5-2v-2l4-1v-2l5-4h2l7-14 1-8h2l3 12v9l-3 14-7 14-12 12-12 6-16 4h-9l-35-5-56-10-25-4-57-10-12-4-10-6-7-6-7-11-4-9-1-5v-22z" fill="#FDF1BD"/>
<path transform="translate(1129,456)" d="m0 0 4 1 1 7 3 95-3 7-4 4-10 2-19 2h-39l-6-3-4-5-1-3-1-14-1-37-1-18v-34l2-1h6l1 1 3 90 3 7h11l2-5-1-20-1-46-1-26 1-1 32-2z" fill="#FDB31F"/>
<path transform="translate(985,579)" d="m0 0h10l9 3 4 5 8 18 3 7 1 8 4 8 1 5h2l2 8v10l-2 2h-13l-64-8-57-8-38-6-3-2v-9l2-2 7-2 7-3 21-6 5-2 8-2 15-6 20-5 7-3 11-2 12-3z" fill="#E78451"/>
<path transform="translate(1169,497)" d="m0 0h24l1 2 1 21 1 3 3 52 2 65v10l-6-3v-2l-5-2-17-12-15-11-14-10-17-12-14-10v-2l17-4 11-5 3-7-3-2-1-67 1-2z" fill="#E5724F"/>
<path transform="translate(1118,397)" d="m0 0h17l1 1 3 82v19h-3l-1-9-1-34-4-1-3 1h-21v2l-32 2 2 65v12l1 15-2 5-1 1h-11l-3-4-1-4-3-92h-8l-1 1v16l1 27-1 2h-3l-1-30 1-11-1-2-2-50v-10l4-1 59-2z" fill="#F9D0AB"/>
<path transform="translate(1023,505)" d="m0 0h20l3 55 2 10 4 5 5 2h38l34-2 8-3 5-5 3 4-3 6-5 3-11 4-9 2h-4v2l5 2 10 8 16 11 11 8 17 12 15 11 8 5v2l5 2 1 1 1 19 1 2v11h-3l-17-12-11-8-10-7-6-4-15-11-18-13-19-13-5-4-11-6-6-4-3-1-2-5-14-9-15-5-6-6-1-7-5-2-18-13-16-11-11-8-19-14-12-8v-1l20-2 3-1z" fill="#D45C3A"/>
<path transform="translate(684,315)" d="m0 0 8 1 4 2 7 14 2 36 2 35v16h-1l-4-54-1-2-1 4-3 1v4h-2l-1 5-3 9v3l-5 4 2 1-4 1-3 3h-3l-5-1-1 5 2 10-3 10-7 4v-2h-2v-3l-3 1h-3l-1-2-6 2-3 3-8 3v-2l-3 1 1 7 3 7 1 9v23h-1l-3-21-6-16-7-12-7-8-2-8v-7l12-18 6-5 10-5 3-4 3-9 4-9 10-12 3-5 3-9 8-7zm-2 79m-7 1m4 0m-9 1 1 2z" fill="#FDF4E1"/>
<path transform="translate(1075,1021)" d="m0 0 5 1 4 1 1 7 4 8v18l-3 9-8 10-7 6-12 5-38 7-31 5-25 4-29 3h-9l-9-2-10-5-8-8-6-11v-7l10 5 5 1h14l14-1 5-2 19-3 21-3 33-5 24-4 13-3 7-4h2l2-4 6-7 4-10z" fill="#FDF0BD"/>
<path transform="translate(965,508)" d="m0 0h15v1l-18 2 11 8 14 10 11 8 14 10 17 12 10 7 3 3 2 6 4 4 17 6 14 10v2l-6-1v-2l-6-1-4-2v-2l-5-1-6-3-15-4-21-4-6-2-17-3-28-1v-1l5-1-6-4-11-8-14-10-17-12-16-12-14-9-18 1h-22v-1l36-2 28-1 7 7 3-1 3-6 3-1z" fill="#E5734F"/>
<path transform="translate(540,393)" d="m0 0h21l17 3 14 4 12 6 12 9 8 9 8 14 5 14 2 13v18l-2 10-4 8-2 5-5 2-3-1-8-13-5-6v-2l-3-1-4-6-8-7-11-9-6-4-10-5-13-6-13-3-3-1-16-3-15-1-9 1h-7v-3l18-2 23 2 18 5 12 4 16 8 5 3v2l4 1 7 5v2l5 2 9 10 1-1v-8l-3-14-6-15-7-10-2-4h-2l-3-3v-2l-4-2-11-7-15-6-19-4-11-1h-13v-3l10-4z" fill="#432D26"/>
<path transform="translate(466,716)" d="m0 0h24l6 7 5 11 6 18v4h8l2 2-8-1v2l-5 1-4 7-1 2h-2l-1 5-4 8-4 7-2 6-1 1v7 3l-1 4-9 9-1 3h-2l-2 5-3 3-3 6-7 10-4 8-6 9-4 8h-2l-1 5-9 12-1 3h-2l2-5 8-13 5-8 1-8 2 2 7-10 7-13 3-3 2-5 3-3 6-9 3-3-8 4-5 1v-3l-5-2-5-4-3-7v-16l2-13 2-30v-10l3-11 5-4z" fill="#FDF4E1"/>
<path transform="translate(762,754)" d="m0 0 9 6 15 11 13 9 11 8 18 13 8 6 5 3 6 5 7 4 14 10-2 2-26 2-8 1-33 2h-12l-3-1-7-8-10-9-4-2-1-31-1-6v-24z" fill="#D45C3A"/>
<path transform="translate(1097,609)" d="m0 0 4 2 22 15 15 11 17 12 5 4 11 7 9 7 17 12 5 3h1l1 17 1 2 1 17v20l-1-2-4-2-12-8-15-11-10-7-14-10-8-6-2-2-2-18-6-16-1-2-1 5h2v25l-2 2v-24l-7-21-7-11-9-10-6-5z" fill="#E5734F"/>
<path transform="translate(780,519)" d="m0 0 6 1 6 4v2l5 2 15 11 13 9 19 14 13 9 18 13 5 4-8 5-12 7-1 1h-6l-34-24-11-8-14-10-11-8-10-7-9-7-5-3-11-8v-5z" fill="#D45C3A"/>
<path transform="translate(905,600)" d="m0 0h5l-2 2-8 3-8 2-19 6-11 3-3 2-6 2v9l10 2 44 7 27 4 80 10h13l1-1v-10l-1-8h-2l-5-12-1-1v-5l2 3v2h3l3 10 5 13v8l-4 8-19-1-19-2-10-1-2-1-22-2 9 4 12 7 6 7 3 3 5 8 2 8 8-8h3l1-3 3 1-13 12-4 3-3-11-7-11-8-7-10-6-15-5-23-2h-20l-15 4-26 9-10 6-6 9-2 5v11l3 8 3 6 7 9 8 7 8 4 19 5 31 7 7 1h22l13-4 10-6 8-9 1-4 4 2 10 1-2 5-4 2-1 5-3 2-2 11h-1v-10l-10 8-10 5-6 2-8 1h-19l-24-5-12-3-17-4-12-6-10-9-7-10-8-17-1-5v-7l2-9 7-10 10-6 10-5 21-7 16-3h23l-28-3-7-2-11-1-6-2-25-4-3-2-1-3v-12l4-3 33-11z" fill="#E5D5BA"/>
<path transform="translate(754,614)" d="m0 0 4 2 11 8 12 8 16 12 14 10 3-2-2 10v21l3 13 1 5h2l2 6h2l3 5 2 1-1 3-10-6-19-14-10-7-18-13-11-8v15l2 42 1 17v28h-1l-2-37-2-33-2-69z" fill="#E67652"/>
<path transform="translate(680,615)" d="m0 0 7 1 5 2 6 7 1 3v11l-3 8-6 12-11 14-6 4h-10l-12-7-14-12-6-8-3-9 2-12 5-4 4-2h10l7 3 2 2 4-1 4-2 2-4z" fill="#E67651"/>
<path transform="translate(1129,456)" d="m0 0 4 1 1 7 3 95-3 7-4 4-10 2-19 2h-39l-6-3 3-2 35-1h7l8-4 3-5 1-5-1-2v-39l-2-22-1-32 4-1h8z" fill="#FEA50E"/>
<path transform="translate(915,779)" d="m0 0 7 1 15 3 11 2 13 1 36 1 11 7 13 10 15 10v2l5 2 3 3-6 1-41 2-2 1-26 1v-1l8-1-11-7-22-16-10-7-8-6-10-7z" fill="#E5724F"/>
<path transform="translate(1169,497)" d="m0 0h24l1 2 1 21 1 3 3 52 1 31v20h-1l-2-45v-17l-5-2-11-7-13-10-20-14-6-4 1 38h-1l-1-8-1-56 1-2z" fill="#E67652"/>
<path transform="translate(261,1200)" d="m0 0 5 5 13 12 11 7 17 9 14 5 32 8 12 2 13 3 2 3-13 3-18 3-25 4-25 2h-13l-4-5-10-25-10-26-1-3z" fill="#FDB321"/>
<path transform="translate(1184,1069)" d="m0 0 6 3 7 10 8 14 3 5v9l-5 5-18-1-2 14-4 12-10-1-12-3 1-9 1-5h2l1-13-3-2-7-2-5-5v-9l4-5 13-8 9-5 6-3z" fill="#E67752"/>
<path transform="translate(1269,627)" d="m0 0 2 2 1 12-7 11-2 10-3 8-3 2-5 1 1 23 2 30v13l2 33-2-1-1-9-4-2-5-7v-2h-2v13l2 7 2 5 1 13v9l4 1 1 6v4h2v-33l2-1 1 10v17l1 6v10l-5 1-1 3-6 3-3 2 1-7 2-5 1-9-3-9-4-5-3-1v-2h2l-1-14v-13l-3-41-1-29-1-20-1-12 8 4 7 1 6-1 2-5 8-11 1-2h2l1-8z" fill="#E5D4B8"/>
<path transform="translate(915,672)" d="m0 0h10l11 3 10 6 5 6 1 2v10l-3 6-6 7-12 4-5 1h-12l-13-3-8-4-5-9-1-10 5-10 14-7z" fill="#FDB31F"/>
<path transform="translate(891,513)" d="m0 0 6 3 14 10 11 8 28 20 10 7 8 6 3 3-12 2-14 1h-15l-8-6-8-5v-9l5-5 2-4-7-2-7-6-3 7-5 2-2 3-5-2-15-11-11-8-13-9-2-2 23-2z" fill="#D45C3A"/>
<path transform="translate(337,1028)" d="m0 0 5 2 6 8 10 24 6 17 13 35-2 4-4 1-3 1-4-11-5-15-4-10-6-17-7-16-4-10-4-2-38 3-18 2-31 3-14 1-15 2-2 1v-6l4-5 5-2 33-4 33-3z" fill="#FEA715"/>
<path transform="translate(752,580)" d="m0 0 11 7 11 8 8 6 11 8 12 8 16 12 2 1-1 5-10 20-9-6-18-13-10-7-13-9-6-5-3-1-1-20z" fill="#D45C3A"/>
<path transform="translate(623,988)" d="m0 0h34l1 1v28l-2 1h-61l-2-3-2-14v-9l6-1h17v-2z" fill="#E67651"/>
<path transform="translate(973,925)" d="m0 0h9l6 4 5 3 5 6 4 2 4 5v9l-4 4-11 2 1 10v12l-18 2-2-15v-8h-13l-5-3-1-2v-7l5-5 2-5 6-7 4-4h2z" fill="#E67752"/>
<path transform="translate(1142,527)" d="m0 0 5 2 15 11 18 13 10 7 7 4 1 17v17l-4-2-17-12-11-8-15-11-8-5-1-5z" fill="#D45C3A"/>
<path transform="translate(1104,456)" d="m0 0 2 2-32 2 2 65v12l1 15-2 5-1 1h-11l-3-4-1-4-3-91 17-1 1-1z" fill="#FDC28B"/>
<path transform="translate(1167,841)" d="m0 0h10l5 5 2 4v12l-1 3h-2v2h-2l-2 5-8 11-4 4h-8l-5-2v-2l-4-1-5-5-7-6-1-5h-2l-1-3v-7l3-7 3-2h11v2l7 1 4-5z" fill="#E67651"/>
<path transform="translate(1303,716)" d="m0 0 7 3 4 5 1 8-3 9-5 8-2 5-6 7-4 1h-7l-8-4-6-5-10-10-2-6v-8l5-5 5-2 8 1 5 3 4-2 5-6z" fill="#E57450"/>
<path transform="translate(1256,621)" d="m0 0h5l5 4 3 2v11l-2 8h-2l-2 5-9 13-8 2-7-2-6-4-11-9-4-6-1-3v-11l5-4h4v-2h6v2l4 1 3 2h4l5-6z" fill="#E57550"/>
<path transform="translate(729,674)" d="m0 0h9l4 1 4 6v10l-4 11-3 6h-3l-1 5-8 7-10-2-13-10v-2l-4-2-5-9v-8l5-5 2-1h7l7 4h3l1-4 7-6z" fill="#E67651"/>
<path transform="translate(942,151)" d="m0 0h13l7 3 5 4 5 9v11l-5 9-4 5-6 3-7 1-10-2-9-7-4-8 1-14 4-7 8-6z" fill="#FCE8BB"/>
<path transform="translate(844,696)" d="m0 0h2l3 8 3 6 7 9 8 7 8 4 19 5 31 7 7 1h22l13-4 10-6 8-9 1-4 4 2 10 1-2 5-4 2-1 5-3 2-2 11h-1v-10l-10 8-10 5-6 2-8 1h-19l-24-5-12-3-17-4-12-6-10-9-7-10-8-17z" fill="#E8D4B6"/>
<path transform="translate(763,787)" d="m0 0 9 6 14 10 10 7 12 8v2l5 2 11 8v2h16v1l-8 1-33 2h-12l-3-1-7-8-10-9-4-2z" fill="#E67751"/>
<path transform="translate(611,311)" d="m0 0 10 2 7 6 3 8v10l-4 8-5 5-6 3-15-1-8-7-3-7-1-8 4-10 5-5 4-3z" fill="#FDFDFD"/>
<path transform="translate(1006,208)" d="m0 0h11l4 2v2l4 1 3 4 2 7v7l-3 7-5 6-10 3-9-2-5-3-6-8v-13l2-5h2v-2h2l1-3z" fill="#FDFDFD"/>
<path transform="translate(1381,562)" d="m0 0 5 1 9 7 4 10-1 10-6 7-10 5-13-4-1-3-3-1-3-5v-14l4-7 9-5z" fill="#FDFDFD"/>
<path transform="translate(295,1085)" d="m0 0 11 2 8 6 3 3v2h2l4 10v6l-9-3-16-5h-17l-9 3-8 1-1-3 4-8 5-6 7-5 6-2z" fill="#FEA50F"/>
<path transform="translate(471,183)" d="m0 0h2l-2 7-4 2-4 5-5 5-4 5-10 14-11 20-9 23-5 15-5 13-5 8-3-2v-8l6-20 9-24 10-19 8-13 3-3 3-5 7-8 7-6h3l2-5 5-1z" fill="#FCEAC1"/>
<path transform="translate(408,618)" d="m0 0h10l9 3 7 7v6l-4 6-5 4-8 3h-15l-8-3 1-11-1-9 6-4z" fill="#FEAB6C"/>
<path transform="translate(545,619)" d="m0 0h15l3 2 3 15 3 4-1 2-5 3-9 3h-10l-11-4-5-6v-7l2-4 10-6z" fill="#FEAB6C"/>
<path transform="translate(590,662)" d="m0 0 2 1-2 3v7l4 10 9 27 9 22 5 2 12 3 5 4 8 5 7 7 3 6 15 4 8 3 9 1 5 4 11 3 5 4 9 3 6 4 8 3v-21l-3-31-2-14-9-4-3-2v-2l-5-2-8-8-4-7-1-8 3-6 6-4h7l6 3v2l4-1v2l-4 1-6-4h-7l-5 3-1 2v8l5 9 9 8 9 6 10 1-1 6 2 16 1 25 1 5 1 18-1 3-7-1-24-12-5-3-10-3-10-4-18-5-10-2-4-10-4-4-16-10-13-1-4 2-12 3 3-3 7-4h2l-2-11-3-8-2-4-2-9-4-10-4-13-3-7v-7z" fill="#FBF1DD"/>
<path transform="translate(905,600)" d="m0 0h5l-2 2-8 3-8 2-19 6-11 3-3 2-6 2v9l10 2 44 7 27 4 80 10 13 1-4 2-28-3-18-2-4 2-8-1-8-2-14-1-3-2h-15l-8-1h-13l-7-2-11-1-6-2-25-4-3-2-1-3v-12l4-3 33-11z" fill="#E9D3B5"/>
<path transform="translate(1023,505)" d="m0 0h20l1 16v17l-9-6-23-16-9-7-20-1v-1z" fill="#E5734F"/>
<path transform="translate(680,615)" d="m0 0 7 1 5 2 6 7 1 3v11l-3 8-6 12-4 4-1-7-6-5v-5l-5-2-2-3v-7l2-2 4-2 5 1 5-1v-2l3-3v-5l-6-2-9 1-5 3-5 5-6 5-9-6-3-1h-8l-8 5-1 3-1 12-2-4 2-12 5-4 4-2h10l7 3 2 2 4-1 4-2 2-4z" fill="#E68350"/>
<path transform="translate(946,682)" d="m0 0 5 5 1 2v10l-3 6-6 7-12 4-5 1h-12l-13-3-8-4-4-6 1-3 6 2 5 2 8 1h11l8-2 7-3 6-5 4-8z" fill="#FEA611"/>
<path transform="translate(439,1425)" d="m0 0 3 1-1 30-4 55-5 83-2 6-3-1 1-24 3-46 3-48 3-47 1-8z" fill="#DF6D2D"/>
<path transform="translate(472,1430)" d="m0 0h4l-1 30-5 95-1 21-2 18-2 5-3-1 3-45 5-94 1-22z" fill="#DF6D2D"/>
<path transform="translate(1114,396)" d="m0 0h23l1 8 2 68v52l-4-2v-22h-2l-1-43h-27v-1l21-1 4-1 4 2 1 34 1 9h1v-19l-3-82h-17l-16 1-60 2 1 38 1 22 1 7-1 6v30l-2-2-2-54-1-48 1-1 11-1z" fill="#FDC38C"/>
<path transform="translate(685,215)" d="m0 0h7l6 3v2h2l2 3 1 10-3 6-3 1v2l-3 2h-12l-5-4-3-4-1-10 3-6h2l2-4z" fill="#FDF5E2"/>
<path transform="translate(764,798)" d="m0 0 8 4v2l5 2 3 3 3 1v2l4 2 10 8 7 7 4 3v2l-24 1-7-8-10-9-2-3z" fill="#D45D3A"/>
<path transform="translate(942,151)" d="m0 0h13l7 3 5 4 5 9v11l-5 9-4 5-6 3-7 1-10-2-9-7-4-8 1-14 4-7 8-6zm5 4-7 3-5 4-3 5v12l4 6 10 6 8-1 7-3 6-9v-10l-3-5h-2l-2-5-11-3z" fill="#FDF5E3"/>
<path transform="translate(832,359)" d="m0 0h18l-4 2-26 1-7 1-46 2-11 1-9 6-4 7-1 3 1 24 2 44 3 41 1 35 6 105v17h-1l-3-38-3-57-2-46-2-34-4-72v-22l5-8 7-6 9-2z" fill="#F7C598"/>
<path transform="translate(517,1450)" d="m0 0 4 1v13l-4 125-1 10-3 1-1-2v-14l2-54 1-43z" fill="#DF6D2D"/>
<path transform="translate(917,486)" d="m0 0h5v2h3v4l4 2 8 2 2 1v5l-9 8-4 8-3 1-7-7-3-2-7-2-2-3 1-4 4-2h3l3-10z" fill="#FDB31F"/>
<path transform="translate(524,588)" d="m0 0h8l6 4 3 5v12l-1 2h-2l-1 3h-2v2l-2 1h-7l-5-3-4-9v-8l3-6z" fill="#4C3328"/>
<path transform="translate(424,588)" d="m0 0h8l3 1v2l4 2 3 7-1 10h-2l-1 4-5 3h-7l-5-4-3-6-1-8 3-8z" fill="#4A3127"/>
<path transform="translate(1145,1179)" d="m0 0 9 1 5 2 8 1 1 4-2 11-3 9h-8l-14-4 1-10z" fill="#E67651"/>
<path transform="translate(562,1471)" d="m0 0 4 1-2 84-2 42-3 2-1-1v-14l3-107z" fill="#DF6D2D"/>
<path transform="translate(599,1472)" d="m0 0h3l1 3 2 55v68l-3 2-1-2-2-106z" fill="#DF6D2D"/>
<path transform="translate(640,1472)" d="m0 0 3 1 1 12 2 87v27h-4l-2-62-1-45v-19z" fill="#DF6D2D"/>
<path transform="translate(1064,428)" d="m0 0h5v2l4 2v25l-5 1-12 1-1-11v-14l2-5z" fill="#E6D6B9"/>
<path transform="translate(534,1153)" d="m0 0h7l4 2 3 8-1 8-5 6-2 1h-10l-3-5-2-5 1-7 4-6z" fill="#FDB320"/>
<path transform="translate(523,1321)" d="m0 0h8l6 5 1 4v8l-3 6-4 2h-9l-5-5-1-3v-7l3-6z" fill="#FDB320"/>
<path transform="translate(527,899)" d="m0 0h7l5 4 2 4v8l-4 7-4 2h-7l-4-2-3-5v-10l4-7z" fill="#FDB31F"/>
<path transform="translate(678,1484)" d="m0 0h3l2 14 6 69 2 31-3 2-2-6-4-54-5-53z" fill="#DF6D2D"/>
<path transform="translate(529,988)" d="m0 0 6 1 5 5 1 3v8l-4 6-5 3-8-1-5-6v-10l4-6z" fill="#FDB31F"/>
<path transform="translate(532,1071)" d="m0 0h7l6 5 1 3v7l-4 8-5 2h-6l-6-5-1-3v-8l3-5z" fill="#FDB21E"/>
<path transform="translate(209,756)" d="m0 0h11l7 3 3 6v14l-5 6-4 2-14-1-2-2v-3l-5-2v-16l6-6zm2 6-5 2-3 6 1 6 7 6 9-1 5-7-1-9-5-3z" fill="#FDF4E1"/>
<path transform="translate(1216,313)" d="m0 0 1 3 3 1 2 10v14l1 5 1 3 4 1 1 9h2l1 5-2 4 1 5v10l-2 1-3-6v-7l-1-5 1-6-3 2 2 8-1 5 2 9-4 1-2-1v-22l-1-4 2-6-1-5h-2l-1-3-1-12z" fill="#F8D0AB"/>
<path transform="translate(990,1019)" d="m0 0h6l1 3 1 18-1 1-8 1h-10l-1-1-1-7v-13z" fill="#E87A53"/>
<path transform="translate(823,1433)" d="m0 0h7l-3 2-20 3-10 1-1 1-26 2-16 3-30 2h-72l-40-4-21-5-2-2 13 2 12 2 1 1 43 4h58l8-2h27l16-4h9l4-2h12z" fill="#F5BC8D"/>
<path transform="translate(882,635)" d="m0 0 11 1 41 6 80 10 13 1-4 2-28-3-18-2-4 2-8-1-8-2-14-1-3-2h-15l-9-1-3-3-14-3h-11v-2l-6-1z" fill="#FCB984"/>
<path transform="translate(702,679)" d="m0 0h7l6 3v2l4-1v2l-4 1-6-4h-7l-5 3-1 2v8l5 9 9 8 9 6 10 1-1 6 2 16 1 25 1 5 1 18-1 3-4-1v-24l-3-31-2-14-9-4-3-2v-2l-5-2-8-8-4-7-1-8 3-6z" fill="#FAF0DB"/>
<path transform="translate(1242,750)" d="m0 0 3 1 6 9 4 4 1 12v25h-1l-1-11-2-1v3l-2 2-2 4-1-9-1-13-3-6-1-6zm6 17m3 1-4 2 2 6 4 1 1-8z" fill="#FEF5E2"/>
<path transform="translate(1243,827)" d="m0 0h1l3 62 2 49 2 36v26l-3 6-1-2 2-6-1-31-2-43-2-31-2-44v-16l-3-1 1-3z" fill="#FEF5E2"/>
<path transform="translate(687,219)" d="m0 0 6 1 3 3 2 9-3 5h-2v2l-6 1-6-3-3-5 1-8 4-4z" fill="#FCE8BB"/>
<path transform="translate(1019,615)" d="m0 0 2 3v2h3l3 10 5 13v8l-4 8-19-1-19-2v-2l-10-1-3-1-1-3 19 2 30 3h2l1-3v-10l-1-8h-2l-5-12-1-1z" fill="#F5CEA8"/>
<path transform="translate(972,1195)" d="m0 0 13 1 3 3 1 2 3 1 1 4v10l-2 4h-3l-1 4-9 1-9-2v-1l11-1 6-4 2-5-1-6-5-5-4-1-9 1-1 5v13l-2 2-2-3v-15l4-6z" fill="#FDF3DD"/>
<path transform="translate(668,1109)" d="m0 0 7 1 9 4 7 3 9 3 13 5 5 3 7 3 17 8 16 8 19 9 24 12-2 4-5-5-13-6-21-10-6-3-5-1v-2l-9-3-30-15-25-9-13-6-5-1z" fill="#EFD2B1"/>
<path transform="translate(973,537)" d="m0 0 4 1 2 4 9 3-1 5-5 5-3 6-4-2-2-4-9-3 1-4 4-3 3-7z" fill="#FDB11D"/>
<path transform="translate(794,246)" d="m0 0h8l4 2 1 3v9l-5 4-4 1-7-3-3-5v-5l2-4z" fill="#FDFDFD"/>
<path transform="translate(907,535)" d="m0 0 7 6 7 3-1 4-5 5-2 6-3 1-5-6-7-3-1-2 5-5z" fill="#FDB21E"/>
<path transform="translate(1155,1143)" d="m0 0h7l9 3 4 1 1 2v7l-1 3-14-1-5-2v-2h-3l1-10z" fill="#E98159"/>
<path transform="translate(833,867)" d="m0 0 4 2 6 11 4 9-3 1h-9l-5-3-3-6v-6l4-6h2z" fill="#E5D5B9"/>
<path transform="translate(402,929)" d="m0 0 1 2-6 11-6 8-1 2h-2l-2 6-3 5h-2l-3 10h-2l-2 5h-2l-2 4-8 13-5 7-6 12 1 8 8 17 1 6-4-4-3-11h-4l-4 3 2-8v-9l3-8 6-11 8-11 7-12 11-16 10-16 8-12z" fill="#FEF5E2"/>
<path transform="translate(264,758)" d="m0 0h10l4 4 1 9-4 4-6 2-6-3-2-6 1-8z" fill="#FDFDFD"/>
<path transform="translate(721,591)" d="m0 0h1l1 23 1 9v15l2 28v7h12v1l-9 1-4 1-2 4-5 4-3-1 6-5 2-5-2-22-2-53z" fill="#F9EED8"/>
<path transform="translate(1256,775)" d="m0 0h1l1 10v17l1 6v10l-5 1-1 3-6 3-3 2 1-7 2-5 2-17 3 1 1 6v4h2v-33z" fill="#ECD4B4"/>
<path transform="translate(1048,457)" d="m0 0 8 1v1l-8 1 1 34 1 18v28h-4l-2-26v-10h3l-1-29v-16z" fill="#FDBD85"/>
<path transform="translate(663,405)" d="m0 0 5 2 3 6 1 5-2 4-5 4-1-2h-2v-3l-3 1h-3l-3-5 1-7 4-1 3-3z" fill="#FDFCFA"/>
<path transform="translate(1245,1006)" d="m0 0h2l-2 4-4 3-12 3-52 3-58 3h-17v-1l7-1 24-1 7-1 25-1 11-1h12l12-1 22-1 12-1 8-3z" fill="#FEF5E2"/>
<path transform="translate(1381,562)" d="m0 0 5 1 9 7 4 10-1 10-6 7-10 5-13-4-1-3-3-1-3-5v-14l4-7 9-5zm-3 2-10 5-4 7-1 6 1 7 6 8 11 3 10-5 4-4v-14l-2-7-9-4-2-2z" fill="#FEF5E2"/>
<path transform="translate(394,1336)" d="m0 0h1l-1 18-2 17v15l6 2 26 4 25 4 17 3 10 2 1 2-10-1-20-4-34-5h-4l-1 7h-1l-1-8-10-1-6-3-1-1 1-21 2-21z" fill="#FEF5E2"/>
<path transform="translate(1187,272)" d="m0 0 6 3 7 2 3 7 12 3 8 4 6 8 1 4-3-3v-2h-2l-4-4-3-2h-14l-8-4-4-5-1-6-4-3z" fill="#FEF5E2"/>
<path transform="translate(993,349)" d="m0 0h39v1l-34 2-7 1-76 4h-30v-1l95-5z" fill="#F7D2AB"/>
<path transform="translate(1135,500)" d="m0 0h1v22l5 1 1 40-1 2-4-2-1-8-1-30z" fill="#FFAC6D"/>
<path transform="translate(1269,627)" d="m0 0 2 2 1 12-7 11-2 10-3 8-3 2h-5l-2-5h-7l-6-3 1-2 3 2 7 1 6-1 2-5 8-11 1-2h2l1-8z" fill="#FCDDAD"/>
<path transform="translate(611,311)" d="m0 0 10 2 7 6 3 8v10l-4 8-5 5-6 3-15-1-8-7-3-7-1-8 4-10 5-5 4-3zm-4 2-8 3-2 4-3 1-3 9 1 9 6 8 4 3 4 1h9l7-3 6-7 2-11-3-9-7-6-6-2z" fill="#FEF5E2"/>
<path transform="translate(680,615)" d="m0 0 7 1 5 2 6 7 1 3v11l-3 8-6 12-4 4 1-6 3-1 3-10 4-9-1-10-5-7-6-2-9 1-5 3-5 5-6 5-9-6-3-1h-8l-8 5-1 3-1 12-2-4 2-12 5-4 4-2h10l7 3 2 2 4-1 4-2 2-4z" fill="#FCBB85"/>
<path transform="translate(1006,208)" d="m0 0h11l4 2v2l4 1 3 4 2 7v7l-3 7-5 6-10 3-9-2-5-3-6-8v-13l2-5h2v-2h2l1-3zm1 2-8 3-1 4-3 1-2 9 1 6 4 6 4 4 11 2 7-3 7-8 1-2v-8l-2-7-5-4-5-3z" fill="#FEF5E2"/>
<path transform="translate(1150,1161)" d="m0 0h2v2l9 1 11 3-2 9-11-1v-2l-9-1-1-1v-8z" fill="#E67650"/>
<path transform="translate(423,1178)" d="m0 0h6l8 2 27 3 32 1h55l15-2 5-1 12-3 4 1-14 4-18 3-19 1-50-1-25-1-27-3-11-3z" fill="#F0D2B1"/>
<path transform="translate(1228,564)" d="m0 0h1l3 53 2 6 8 5 2-4 5-3 5-1h8l5 4-1 2-5-4-8 1-6 3-4 5-6-1-5-3v-2h-6v2l-4-1 7-4-1-23z" fill="#FDF2DD"/>
<path transform="translate(864,1098)" d="m0 0h1l1 16 2 60 2 32v12l-2-2-1-7v-11l-2-31-1-33z" fill="#FEF5E2"/>
<path transform="translate(590,662)" d="m0 0 2 1-2 3v7l4 10 9 27 8 20v5l-14 7-2-1 10-6h2l-2-11-3-8-2-4-2-9-4-10-4-13-3-7v-7z" fill="#F8DBB9"/>
<path transform="translate(1040,411)" d="m0 0h2l2 50 1 7-1 6v30l-2-2-2-54z" fill="#FDC38C"/>
<path transform="translate(905,600)" d="m0 0h5l-2 2-8 3-8 2-19 6-11 3-3 2-6 2v9l10 2 19 3v1h-19l-9-1-3-3v-12l4-3 33-11z" fill="#F8BF8E"/>
<path transform="translate(979,587)" d="m0 0h3l-1 4-9 11-8 9-9 11-8 8-3-1 3-5 5-5 13-15 7-9z" fill="#E06F2F"/>
<path transform="translate(1130,454)" d="m0 0 5 2 1 34 1 9 3-1v26l-4-2v-22h-2l-1-43h-27v-1l21-1z" fill="#FDC38C"/>
<path transform="translate(1200,628)" d="m0 0 2 2 2 25 1 28 1 12v23h-1l-1-17-1-2-1-28-1-2z" fill="#F5CAA3"/>
<path transform="translate(607,627)" d="m0 0 1 3-3 3h-9l5 8 1 5-6 9-3 4 1-5 3-8-3-2-1-3-2-1v-11l2 1 1-2h3v2h7z" fill="#F1DCBB"/>
<path transform="translate(213,758)" d="m0 0h7l7 6 1 2v10l-2 4-6 4h-9l-1-2 10-2 4-6-1-9-4-2h-12l2-4z" fill="#FAE4BA"/>
<path transform="translate(966,658)" d="m0 0 4 1 7 4 6 7 3 3 5 8 2 8 8-8h3l1-3 3 1-13 12-4 3-3-11-7-11-8-7-7-4z" fill="#E5D4B7"/>
<path transform="translate(982 1e3)" d="m0 0h12l1 8-8 1h-10l-1-7z" fill="#E67750"/>
<path transform="translate(989,989)" d="m0 0 4 1v8l-18 1v-8z" fill="#E5744F"/>
<path transform="translate(856,935)" d="m0 0h8l3 9-1 3-8 1-5-3-1-6z" fill="#E5D5B9"/>
<path transform="translate(1188,398)" d="m0 0h1l3 55 2 34v12h-1l-3-35-2-32z" fill="#F6CBA0"/>
<path transform="translate(990,601)" d="m0 0 3 1-2 6-11 13-6 8-5 6h-3l1-4 9-11 8-10z" fill="#E06F2F"/>
<path transform="translate(878,1365)" d="m0 0h1v42l-3 12-2 7-2-2-2 2-7 2h-5l4-2 7-2 6-11 1-6 1-40z" fill="#FBE7CE"/>
<path transform="translate(952,595)" d="m0 0 3 1-3 5-9 10-9 11-6 7h-3l1-4 12-14 11-12z" fill="#E06F2E"/>
<path transform="translate(471,601)" d="m0 0h3v7l-5 25h5v4l-8-1-1-7 4-17z" fill="#5F3F2D"/>
<path transform="translate(374,886)" d="m0 0 3 1 1 2v14l-1 2-4 1-3 5-4-2 4-5 1-13z" fill="#FEF5E2"/>
<path transform="translate(463,650)" d="m0 0 2 1 2 8 6 2 9-1 11-8 2 1-2 4h-2l-2 4-9 4h-9l-5-3-4-5v-6z" fill="#5F3F2D"/>
<path transform="translate(679,767)" d="m0 0 7 1 3 3 11 3 5 4 9 3 6 4 8 3 1 4-6-2-22-11-5-3-10-3-1-3-6-2z" fill="#FCF3DF"/>
<path transform="translate(930,598)" d="m0 0 4 1-1 3-8 7-8 8-5 4-4 5-4-1 6-7 16-16h2z" fill="#E06F2F"/>
<path transform="translate(739,1140)" d="m0 0 9 2 10 5 19 9 24 12-2 4-5-5-13-6-21-10-6-3-5-1v-2l-9-3z" fill="#EED2B2"/>
<path transform="translate(332,1027)" d="m0 0h8l6 4h2l3-3 4 4 2 6-4-2v5 3h-2l-1-3-3-3-6-8-4-1-11 1h-9v-1z" fill="#F9D1AA"/>
<path transform="translate(985,720)" d="m0 0 5 2 10 1-1 2h-6v3l-8 8h-8l5-6 2-5z" fill="#F7CAA2"/>
<path transform="translate(264,758)" d="m0 0h10l4 4 1 9-4 4-6 2-6-3-2-6 1-8zm5 1-5 3-1 6 2 4 7 1 5-2v-7l-2-2-4-3z" fill="#FDF5E2"/>
<path transform="translate(702,679)" d="m0 0h7l6 3v2l4-1v2l-4 1-6-4h-7l-5 3-1 2v8l5 9 9 8 9 6 5 1v1l-9-1-4-3v-2l-5-2-8-8-4-7-1-8 3-6z" fill="#FCBA84"/>
<path transform="translate(407,1390)" d="m0 0 17 2 25 4 17 3 10 2 1 2-10-1-20-4-34-5h-4l-1 7h-1l-1-9z" fill="#F6C090"/>
<path transform="translate(755,364)" d="m0 0h12v1l-11 1-9 6-4 7-1 3 1 24v16h-1l-2-21v-22l5-8 7-6z" fill="#F8C99C"/>
<path transform="translate(976,649)" d="m0 0 19 2 18 2v2l-14 1h-9v-2l-10-1-3-1z" fill="#F9CDA5"/>
<path transform="translate(384,1079)" d="m0 0h3l4 6 12 14 6 5 5 5 6 7 6 4-1 3-8-7-5-5-8-7-14-16z" fill="#EAD3B5"/>
<path transform="translate(524,898)" d="m0 0h13l5 4v16l-2 4-4 3h-11l-3-3 4 1h7l4-2 3-6v-8l-4-6-2-1h-7l-4 1-3 6-2-3 4-5z" fill="#FCDBB3"/>
<path transform="translate(1254,620)" d="m0 0h8l5 4-1 2-5-4-8 1-6 3-4 5-6-1-5-3v-2l-2-1 4-1 8 5 2-4 5-3z" fill="#FBBA85"/>
<path transform="translate(794,246)" d="m0 0h8l4 2 1 3v9l-5 4-4 1-7-3-3-5v-5l2-4zm3 1-4 2-3 7 2 5 4 2 7-1 3-3v-7l-5-4z" fill="#FEF5E2"/>
<path transform="translate(531,1069)" d="m0 0h10l2 2-1 3-3-2h-7l-6 5-1 3v8l3 5 3 2 11-1-3 3h-9l-6-5-1-2v-12l3-6z" fill="#FCDAB0"/>
<path transform="translate(1243,827)" d="m0 0h1l1 25v19h-2l-1-22v-16l-3-1 1-3z" fill="#F8EAD2"/>
<path transform="translate(892,638)" d="m0 0 13 1 10 3 1 3h-12l-7-2v-2l-5-1z" fill="#F3D0AD"/>
<path transform="translate(1174,344)" d="m0 0 5 2 5 6 3 9 1 17v18h-1l-1-6-2-32-6-9v-2l-4-1z" fill="#F5CBA0"/>
<path transform="translate(984,988)" d="m0 0h10v11l-13 2h-7l-1-1v-10l2-1zm5 1-14 2v8l18-1v-8z" fill="#F8BF8D"/>
<path transform="translate(985,579)" d="m0 0h10l9 3 4 5-1 2-7-6-13-1-15 3-7 2h-6v-1z" fill="#F7C292"/>
<path transform="translate(909,1031)" d="m0 0m-10 0h7l3 2-36 2-10 1-3 3v-4h2l1-3h13z" fill="#FEF5E2"/>
<path transform="translate(589,612)" d="m0 0 2 1 4 13 1 2h-2l-1 3h-1l-1 8h-1l-2-13v-12z" fill="#FBB67E"/>
<path transform="translate(1206,723)" d="m0 0h1l1 18 1 2v34h-1l-1-16-1-5z" fill="#F5C8A2"/>
<path transform="translate(964,607)" d="m0 0 1 3-12 14-6 6-3-1 3-5 5-5 5-6z" fill="#DF6E2E"/>
<path transform="translate(1245,1006)" d="m0 0h2l-2 4-4 3-12 3-14 1h-17l2-2 22-1 12-1 8-3z" fill="#FDF3DE"/>
<path transform="translate(370,868)" d="m0 0 7 1 1 2v11l-3 3-2-2z" fill="#FEF5E2"/>
<path transform="translate(995,724)" d="m0 0h4l-1 4-4 2-1 5-3 2-2 11h-1l-1-12 5-8h2v-3z" fill="#F2D3B7"/>
<path transform="translate(1130,454)" d="m0 0 5 2v44h-1l-1-43h-27v-1l21-1z" fill="#FDBE85"/>
<path transform="translate(711,683)" d="m0 0 5 2h3l1 8-3 3-5-2-2-6z" fill="#E78451"/>
<path transform="translate(486,1405)" d="m0 0 9 1 10 2v2l9 2 12 3 1 2 10 3v1h-6l-9-4-36-11z" fill="#F5BF91"/>
<path transform="translate(823,1433)" d="m0 0h7l-3 2-20 3-10 1-1 1h-11v-1h7v-2z" fill="#F1B385"/>
<path transform="translate(427,891)" d="m0 0 2 2-2 1-1 4h-2l-2 5h-2l-1 5h-2l-2 6-5 8-2 1-3 5-2 1 2-5 11-17 10-15z" fill="#FEF5E2"/>
<path transform="translate(402,929)" d="m0 0 1 2-6 11-6 8-1 2h-2l-2 6-3 5h-2l-2 4v-3l7-11 13-20z" fill="#FEF5E2"/>
<path transform="translate(1242,707)" d="m0 0 5 1 1 7-3 5-3 1-1-1v-12z" fill="#FEF5E2"/>
<path transform="translate(651,760)" d="m0 0 14 2 20 8v1l-7-1-19-6-8-1z" fill="#FEF5E2"/>
<path transform="translate(1269,627)" d="m0 0 2 2 1 12-9 14-3 1v2l-2-1 7-11h2l1-8z" fill="#FBC794"/>
<path transform="translate(618,987)" d="m0 0h39v1l-43 1v2h-17v-1l11-1z" fill="#F6CEA7"/>
<path transform="translate(496,726)" d="m0 0 3 3 8 23v4h8l2 2h-14v-9l-4-12z" fill="#FADCB3"/>
<path transform="translate(997,614)" d="m0 0 3 1-4 7-9 11h-3l2-5z" fill="#DF6E2E"/>
<path transform="translate(727,719)" d="m0 0 2 1-1 5v20l-2-2-3-21-2-2z" fill="#E7D6B9"/>
<path transform="translate(426,576)" d="m0 0h10l1 4h-9l-6 2-6 1 2-4z" fill="#67442F"/>
<path transform="translate(990 1e3)" d="m0 0h6v10l-12 2h-8l-1-1v-10h7l-3 2h-3l1 7 18-1-1-8z" fill="#F7C192"/>
<path transform="translate(639,623)" d="m0 0h10l7 3 2 2h4l-1 4-5-3-8-4h-8l-8 5-1 3-1 12-2-4 2-12 5-4z" fill="#FABD8A"/>
<path transform="translate(1048,457)" d="m0 0 8 1v1l-8 1 1 38h-2l-1-23v-16z" fill="#FDC18A"/>
<path transform="translate(594,628)" d="m0 0 3 1-2 6 1 5 2 2 2 3-2 2-4-3-1-3-2-1v-11l2 1z" fill="#F8CFAA"/>
<path transform="translate(882,635)" d="m0 0 11 1 35 5v1l-18-1-11-2h-11v-2l-6-1z" fill="#FEB174"/>
<path transform="translate(1256,621)" d="m0 0h5l5 4 3 2v6h-1v-5l-5 1-3-2v-2h-8l-1-2z" fill="#E88653"/>
<path transform="translate(723,665)" d="m0 0 3 1v7h12v1l-9 1-4 1-2 4-5 4-3-1 6-5 2-5z" fill="#F7E7CF"/>
<path transform="translate(1019,615)" d="m0 0 2 3v2h3l3 10 3 7v15h-3l1-1v-10l-1-8h-2l-5-12-1-1z" fill="#F9BB88"/>
<path transform="translate(1244,551)" d="m0 0h1v14l-2 10-7 2h-1l-1 5h-1v-8l9-3z" fill="#FEF5E2"/>
<path transform="translate(471,183)" d="m0 0h2l-2 7-4 2-4 5-2-1 1-2-3-1 3-1 2-5 5-1z" fill="#FDF0D4"/>
<path transform="translate(535,1324)" d="m0 0 3 1 1 3v13l-6 7h-10l-5-3 1-2 3 2h9l4-2 2-5v-8z" fill="#FCD8AF"/>
<path transform="translate(679,767)" d="m0 0 7 1 3 3 11 3 6 5-3 1-6-3-8-3-4-2v-2l-6-2z" fill="#F9EFDB"/>
<path transform="translate(779,1437)" d="m0 0 13 1v1l-22 3-3 1h-13v-1l13-3h9z" fill="#F6DDBE"/>
<path transform="translate(1185,1114)" d="m0 0h10l5 1v1h-14l-2 15-2 3-2 8h-5l-1-2h5l2-10z" fill="#FCC28E"/>
<path transform="translate(446,861)" d="m0 0 1 2-4 8h-2l-1 5-9 12-1 3h-2l2-5 8-13 7-11z" fill="#FEF5E2"/>
<path transform="translate(1013,654)" d="m0 0 3 1v2h10l3-1-1 3-19-1-16-2v-1h12z" fill="#E5D5B9"/>
<path transform="translate(213,756)" d="m0 0h7l7 3 3 6v10h-2l-1-9-5-6-9-2z" fill="#FDF6E7"/>
<path transform="translate(427,605)" d="m0 0h5l2 3-1 5-1 1h-5l-1-7z" fill="#F6E8DC"/>
<path transform="translate(778,1198)" d="m0 0 1 2-7 8-10 9-7 6-2-1 5-5 10-9 5-5z" fill="#FDF4E1"/>
<path transform="translate(524,604)" d="m0 0 5 1 1 1v6l-4 2-3-2v-7z" fill="#F7EADE"/>
<path transform="translate(525,578)" d="m0 0h10l6 3 1 4-4-1-5-2-8-1z" fill="#5A3C2D"/>
<path transform="translate(1218,300)" d="m0 0 5 1 1 2-2 3-3 3h-2l-1 2v-2h-2l1-4-1-2z" fill="#F7D0AB"/>
<path transform="translate(1223,1176)" d="m0 0 2 2 2 6 1 15 1 2h-4l-2-19z" fill="#E5D5B9"/>
<path transform="translate(349,1023)" d="m0 0 6 5 5 11 1 6-4-4-3-11h-4l-4 3z" fill="#FDEED4"/>
<path transform="translate(521,1320)" d="m0 0h13l1 4-4-2h-8l-5 6-1 3v7l1 5-3-1v-13z" fill="#FCDEB6"/>
<path transform="translate(583,1178)" d="m0 0 4 1-14 4-18 3h-10v-1l21-3 5-1z" fill="#F3D1AE"/>
<path transform="translate(606,725)" d="m0 0 4 2 1 8-14 7-2-1 10-6h2z" fill="#F5D5B3"/>
<path transform="translate(493,652)" d="m0 0 2 1-2 4h-2l-2 4-6 3h-3v-3l9-6z" fill="#573A2C"/>
<path transform="translate(471,601)" d="m0 0h3v7l-4 13h-1v-9z" fill="#593C2C"/>
<path transform="translate(390,1381)" d="m0 0h1l1 5 6 2 8 1v3l-10-1-6-3-1-1v-5z" fill="#FDF3DF"/>
<path transform="translate(697,637)" d="m0 0h1l-1 9-7 13-4 4 1-6 3-1 3-10z" fill="#FEB276"/>
<path transform="translate(568,766)" d="m0 0v3l-1 2h-2l-2 4-11 13-5-1-2-2 1-3 3 4 4-2 9-11z" fill="#FEF5E2"/>
<path transform="translate(1125,645)" d="m0 0h2l3 10v4h2v25l-2 2v-24l-3-9z" fill="#F5AD78"/>
<path transform="translate(895,611)" d="m0 0h4l-1 4-5 5h-2l-1 3h-2l1-6z" fill="#E06F2F"/>
<path transform="translate(973,925)" d="m0 0h9v1l-7 2-5 5h-2v2l-3 1-5 6v-3l6-7 4-4h2z" fill="#F2AD7E"/>
<path transform="translate(1135,845)" d="m0 0h11l3 2-11 1-3 2-2 6v10l-2-2v-11l2-6h2z" fill="#F6CEA7"/>
<path transform="translate(721,591)" d="m0 0h1l1 22h-3l-1-15z" fill="#FEF5E2"/>
<path transform="translate(589,1436)" d="m0 0 13 2 12 2 7 2v1h-9l-21-5z" fill="#F3B586"/>
<path transform="translate(1256,775)" d="m0 0h1l1 10v16l-2 1-1-26z" fill="#E5D5B9"/>
<path transform="translate(1075,629)" d="m0 0h16l6 3-1 2-7-3h-11l-6 2h-4v2l-2-1 1-2h3v-2z" fill="#F1C097"/>
<path transform="translate(473,714)" d="m0 0h16l6 2 2 9-4-5-3-3-17-2z" fill="#F9D7B0"/>
<path transform="translate(332,1027)" d="m0 0h8l6 4 1 5-5-5-5-2-11 1h-9v-1z" fill="#FCCE9D"/>
<path transform="translate(729,778)" d="m0 0 4 4v7l-1 3-4-1z" fill="#E5D5B9"/>
<path transform="translate(982,726)" d="m0 0v3l-9 8-11 5-3-1 10-5 7-4z" fill="#FEF5E2"/>
<path transform="translate(739,1140)" d="m0 0 9 2 10 5v2l2 1-5-1-6-2v-2l-9-3z" fill="#F1D2B0"/>
<path transform="translate(668,1109)" d="m0 0 7 1 9 4 7 3-2 1-16-5-6-2z" fill="#E9D3B5"/>
<path transform="translate(854,909)" d="m0 0h2l3 10-3 1-4-4v-5z" fill="#E5D5B9"/>
<path transform="translate(458,841)" d="m0 0v3l-5 10-5 7-4 2v-6l2 2 7-10z" fill="#FDF4DF"/>
<path transform="translate(607,627)" d="m0 0 1 3-3 3h-9l2 4-2 1-2-5 2-4 8 1z" fill="#F2D5B2"/>
<path transform="translate(1108,816)" d="m0 0 13 1v1l-11 1h-20v-1z" fill="#F7A368"/>
<path transform="translate(647,1134)" d="m0 0v3l-16 16-2-1 6-7h2v-2l6-5z" fill="#FEF5E2"/>
<path transform="translate(853,630)" d="m0 0 21 3 8 1v1h-17v-2l-11-1z" fill="#FDB57B"/>
<path transform="translate(729,760)" d="m0 0h1l2 11v9l-3-2-1-17z" fill="#FEF5E2"/>
<path transform="translate(611,732)" d="m0 0 12 3 1 2h-13l-4 2-4-1 7-3z" fill="#FEF5E2"/>
<path transform="translate(561,1428)" d="m0 0 13 2v2l11 2v1l-9-1-10-2-5-3z" fill="#F5C59A"/>
<path transform="translate(384,1079)" d="m0 0h3l4 6 9 11-1 2-4-5-5-5z" fill="#ECD3B3"/>
<path transform="translate(844,609)" d="m0 0 3 1-9 9-5 3-3 3 1-4 7-7 3-1z" fill="#F9CCA2"/>
<path transform="translate(524,898)" d="m0 0h13l1 4-4-2h-7l-4 1-3 6-2-3 4-5z" fill="#FDDEB7"/>
<path transform="translate(213,758)" d="m0 0h7l1 3-9 1-5 1 2-4z" fill="#F9DDB6"/>
<path transform="translate(675,617)" d="m0 0 4 1-8 4-5 5-4 3 1-4 3-1 2-4z" fill="#FDB57C"/>
<path transform="translate(905,600)" d="m0 0h5l-2 2-8 3-12 1 2-2z" fill="#F5C192"/>
<path transform="translate(724,1131)" d="m0 0 9 4 10 5-2 1-11-4-4-2v-2h-2z" fill="#EBD3B4"/>
<path transform="translate(525,987)" d="m0 0h9l3 3-8-1-6 3-3 3-1-3 3-1 1-3z" fill="#FCDCB3"/>
<path transform="translate(702,707)" d="m0 0 4 2 11 8 7 2v1l-9-1-4-3v-2l-5-2z" fill="#FBBE8B"/>
<path transform="translate(590,662)" d="m0 0 2 1-2 3v7l1 7-3-3-1-4v-7z" fill="#F7D9B7"/>
<path transform="translate(983,699)" d="m0 0h3l-1 6-2 4-1 7h-1v-14l2-2z" fill="#F7C9A0"/>
<path transform="translate(1e3 678)" d="m0 0 3 1-13 12-3 2 2-4 7-8h3z" fill="#F3B180"/>
<path transform="translate(963,648)" d="m0 0 13 1 1 2-9 1-5-2z" fill="#F8CFAA"/>
<path transform="translate(724,1443)" d="m0 0 18 1v1l-26 1v-1z" fill="#F4E2C8"/>
<path transform="translate(1162,1112)" d="m0 0 1 4-2 6h-2v5l-1-2h-6v-2l6-2z" fill="#FCD4A7"/>
<path transform="translate(480,799)" d="m0 0 2 4 2 3-3 4h-2l-1-7z" fill="#FCE8BB"/>
<path transform="translate(1269,627)" d="m0 0 2 2 1 12-4 4z" fill="#FCDCAD"/>
<path transform="translate(527,766)" d="m0 0 5 2 12 11v2h-2l-6-7-4-2z" fill="#FEF5E2"/>
<path transform="translate(602,712)" d="m0 0h2l5 13-1 2-3-3-3-8z" fill="#F8DCBB"/>
<path transform="translate(946,645)" d="m0 0 17 2v2h-9l-7-1z" fill="#FACBA0"/>
<path transform="translate(1232,623)" d="m0 0 10 5v2h-5l-5-3v-2l-2-1z" fill="#F5D0AA"/>
<path transform="translate(908,533)" d="m0 0h2v2l3 1-1 4-5-4-3 7h-1l1-7z" fill="#E06F2F"/>
<path transform="translate(863,1032)" d="m0 0h9l1 3-10 1-3 3v-4h2z" fill="#F7EBD5"/>
<path transform="translate(1245,1006)" d="m0 0h2l-2 4-4 3-6 2h-6l1-2 6-1 6-2z" fill="#FEF5E2"/>
<path transform="translate(1097,634)" d="m0 0 3 1 1 2v11l-3 6-1-2 2-6-1-8z" fill="#EFC8A3"/>
<path transform="translate(471,616)" d="m0 0 1 3-3 14h-1v-8h-1l1-8z" fill="#744C33"/>
<path transform="translate(955,587)" d="m0 0 4 1-13 4h-8l2-2z" fill="#F9B984"/>
<path transform="translate(1056,431)" d="m0 0 3 3-1 1 2 2h-3v10l-2-3v-10z" fill="#FBE7BA"/>
<path transform="translate(996,1022)" d="m0 0h1l1 18-1 1h-7l4-2h2z" fill="#F69E64"/>
<path transform="translate(1209,779)" d="m0 0h1v22h2v2l-4-1z" fill="#F1D7B9"/>
<path transform="translate(1054,642)" d="m0 0h3v2l-11 8h-2l2-4 6-3z" fill="#EFB689"/>
<path transform="translate(1181,256)" d="m0 0 4 5 2 7-1 4-4-9-1-1z" fill="#FEF5E2"/>
<path transform="translate(1023,150)" d="m0 0 11 1 8 3v1l-10-1-9-3z" fill="#FEF5E2"/>
<path transform="translate(1023,1090)" d="m0 0h2v2l-15 3h-2l1-3z" fill="#EED5B4"/>
<path transform="translate(1342,1053)" d="m0 0h3l1 3-1 1 1 7v3h-3z" fill="#FDFDFD"/>
<path transform="translate(1223,1176)" d="m0 0 2 2 2 6v5h-3z" fill="#ECD9B8"/>
<path transform="translate(664,1112)" d="m0 0v3l-10 13v-3l8-11z" fill="#FEF5E2"/>
<path transform="translate(952,689)" d="m0 0 2 1v10l-4 4z" fill="#FDDFBA"/>
<path transform="translate(723,674)" d="m0 0 4 2h-2l-2 4-5 4-3-1 6-5z" fill="#F4D3AE"/>
<path transform="translate(975,667)" d="m0 0 4 2 5 6 2 5-4-3v-2h-2v-3l-3-1z" fill="#FEF5E2"/>
<path transform="translate(463,650)" d="m0 0 2 1 2 8-3 1-2-3v-6z" fill="#674430"/>
<path transform="translate(1138,556)" d="m0 0h2l1 2v7l-4-2z" fill="#FDC38C"/>
<path transform="translate(985,928)" d="m0 0 7 3 4 5-4-1-3-1v-2h-2v-2h-2z" fill="#F3B383"/>
<path transform="translate(774,823)" d="m0 0 4 2 5 5 4 3v2h-3l-7-8z" fill="#F29C65"/>
<path transform="translate(1305,749)" d="m0 0 1 4-7 8-2-1 3-3 2-5z" fill="#F49F67"/>
<path transform="translate(934,674)" d="m0 0 9 2 1 3 4 2v3l-8-6-6-3z" fill="#FCD7A8"/>
<path transform="translate(886,638)" d="m0 0 7 2 4 2h-11l-2-3z" fill="#E5D5B9"/>
<path transform="translate(351,853)" d="m0 0h7l1 3-2 2-7-3z" fill="#FEF5E2"/>
<path transform="translate(694,622)" d="m0 0h2l3 6v11h-1l-2-12-2-2z" fill="#FBBD89"/>
<path transform="translate(462,190)" d="m0 0h4l1 2-4 5-2-1 1-2-3-1 3-1z" fill="#FEF5E2"/>
<path transform="translate(1287,1236)" d="m0 0h2l2 6v4h-4l-1-2z" fill="#F7E4BA"/>
<path transform="translate(222,1039)" d="m0 0h2l-2 4-4 4h-2l2-5z" fill="#FDB748"/>
<path transform="translate(349,1023)" d="m0 0 3 3 1 4h-3l-4 3z" fill="#FCE8BB"/>
<path transform="translate(352,917)" d="m0 0 4 1-1 4h-6v-3z" fill="#FEF5E2"/>
<path transform="translate(496,726)" d="m0 0 3 3 4 13h-2l-3-7z" fill="#FADEB4"/>
<path transform="translate(988,684)" d="m0 0 2 2 1 9-3 1z" fill="#FBEED8"/>
<path transform="translate(693,650)" d="m0 0 1 2-7 11-1-3 2-4h2l2-5z" fill="#FDB881"/>
<path transform="translate(420,578)" d="m0 0h4l-2 4-6 1 2-4z" fill="#593B2C"/>
<path transform="translate(361,859)" d="m0 0h5l1 5-6-3z" fill="#FEF5E2"/>
<path transform="translate(368,864)" d="m0 0 3 1-1 3z" fill="#FEF5E2"/>
<path transform="translate(1349,1048)" d="m0 0h7v1h-7z" fill="#FDFDFD"/>
<path transform="translate(332,848)" d="m0 0 3 1z" fill="#FEF5E2"/>
<path transform="translate(1251,774)" d="m0 0 1 2-2-1z" fill="#FEF5E2"/>
<path transform="translate(672,400)" d="m0 0 2 2h-2z" fill="#FEF5E2"/>
<path transform="translate(683,397)" d="m0 0h2l-1 2z" fill="#FEF5E2"/>
<path transform="translate(231,771)" d="m0 0" fill="#FEF5E2"/>
<path transform="translate(677,399)" d="m0 0 2 1z" fill="#FEF5E2"/>
<path transform="translate(697,368)" d="m0 0 2 1z" fill="#FEF5E2"/>
<path transform="translate(347,921)" d="m0 0" fill="#FEF5E2"/>
<path transform="translate(356,917)" d="m0 0" fill="#FEF5E2"/>
<path transform="translate(1252,773)" d="m0 0" fill="#FEF5E2"/>
<path transform="translate(1250,771)" d="m0 0" fill="#FEF5E2"/>
<path transform="translate(614,639)" d="m0 0" fill="#FCE8BB"/>
<path transform="translate(635,430)" d="m0 0" fill="#FEF5E2"/>
<path transform="translate(636,429)" d="m0 0" fill="#FEF5E2"/>
<path transform="translate(636,427)" d="m0 0" fill="#FEF5E2"/>
<path transform="translate(660,423)" d="m0 0" fill="#FEF5E2"/>
<path transform="translate(658,423)" d="m0 0" fill="#FEF5E2"/>
<path transform="translate(675,399)" d="m0 0" fill="#FEF5E2"/>
<path transform="translate(674,398)" d="m0 0" fill="#FEF5E2"/>
<path transform="translate(685,396)" d="m0 0" fill="#FEF5E2"/>
<path transform="translate(684,395)" d="m0 0" fill="#FEF5E2"/>
<path transform="translate(700,364)" d="m0 0" fill="#FEF5E2"/>
</svg>
